<?xml version="1.0" standalone="no"?>
<!DOCTYPE svg PUBLIC "-//W3C//DTD SVG 20010904//EN"
 "http://www.w3.org/TR/2001/REC-SVG-20010904/DTD/svg10.dtd">
<svg version="1.0" xmlns="http://www.w3.org/2000/svg"
 width="500.000000pt" height="500.000000pt" viewBox="0 0 500.000000 500.000000"
 preserveAspectRatio="xMidYMid meet">

<g transform="translate(0.000000,500.000000) scale(0.100000,-0.100000)"
fill="#000000" stroke="none">
<path d="M2395 4675 c-66 -24 -125 -52 -133 -62 -19 -26 -100 -285 -104 -330
l-3 -38 75 -27 c127 -45 297 -83 314 -69 18 15 90 178 128 289 43 128 41 138
-44 216 -41 38 -81 66 -93 66 -11 -1 -74 -21 -140 -45z"/>
<path d="M2777 4553 c-11 -20 -137 -426 -137 -443 0 -13 16 -25 58 -40 132
-51 198 -70 238 -70 37 0 47 5 70 35 29 38 128 278 139 338 6 31 3 44 -20 76
-28 42 -81 83 -128 100 -32 12 -214 15 -220 4z"/>
<path d="M3218 4343 c-30 -33 -158 -336 -158 -373 0 -14 90 -57 158 -76 102
-28 121 -13 217 173 28 56 48 109 52 141 5 47 3 53 -24 80 -29 30 -112 60
-188 69 -31 4 -44 1 -57 -14z"/>
<path d="M1986 4157 c-59 -63 -198 -451 -199 -557 0 -43 11 -85 52 -195 32
-82 53 -156 54 -180 0 -44 -76 -216 -288 -650 -140 -288 -409 -853 -418 -878
-4 -10 -3 -16 2 -13 9 6 165 248 416 646 317 503 383 600 407 600 4 0 8 -19 8
-41 0 -59 -38 -144 -315 -709 -134 -272 -250 -512 -259 -532 -15 -38 -15 -38
9 -38 13 0 100 11 195 25 187 27 240 30 240 15 0 -32 -257 -620 -271 -620 -4
0 -49 48 -100 107 -51 60 -98 108 -105 108 -17 0 -207 -254 -201 -268 3 -7 60
-74 126 -150 67 -76 121 -140 121 -142 0 -2 -43 -94 -95 -206 -53 -111 -94
-204 -91 -206 5 -5 128 148 211 260 l50 68 29 -33 c16 -18 46 -51 66 -73 27
-30 232 -265 255 -293 1 -1 93 119 205 268 l202 270 -42 48 c-24 26 -45 49
-46 50 -1 2 -44 -52 -96 -120 -51 -69 -97 -126 -101 -127 -7 -2 -168 177 -246
272 -12 15 46 96 516 724 538 720 573 767 573 777 0 11 -44 6 -288 -35 -134
-22 -246 -38 -249 -35 -9 9 24 54 138 186 l107 125 184 54 c183 53 343 111
386 139 26 17 182 248 429 632 220 344 273 433 273 459 0 78 -167 231 -252
231 -26 0 -80 -74 -138 -189 -53 -105 -53 -109 -22 -125 15 -7 50 -17 78 -21
48 -6 54 -5 88 26 20 17 39 29 43 26 7 -7 -40 -89 -62 -107 -13 -11 -30 -11
-103 3 -48 9 -131 24 -185 33 l-99 16 -31 -29 c-18 -16 -71 -65 -118 -109 -47
-43 -110 -92 -140 -108 -29 -17 -130 -53 -224 -81 l-170 -52 -22 36 c-43 68
-93 176 -95 206 -4 36 3 37 117 5 59 -17 118 -24 225 -27 145 -5 146 -5 176
20 37 31 114 178 114 217 0 26 -6 31 -77 58 -139 54 -645 221 -747 247 -134
34 -161 33 -200 -8z"/>
<path d="M3922 3630 c-84 -61 -134 -156 -134 -253 2 -133 143 -270 263 -254
69 9 129 74 129 141 0 35 2 38 23 32 18 -4 29 1 46 25 12 16 21 34 19 39 -4
14 -122 149 -130 149 -8 1 -108 -134 -108 -146 0 -6 6 -16 14 -22 12 -10 17
-8 26 8 15 29 27 26 50 -11 36 -59 18 -118 -30 -103 -31 10 -133 108 -174 169
-29 41 -37 61 -34 87 4 46 30 49 79 9 22 -17 43 -29 47 -26 5 3 21 23 37 45
l27 40 -42 51 c-23 27 -48 50 -54 50 -7 0 -32 -13 -54 -30z"/>
<path d="M1340 3370 c-12 -28 -9 -40 34 -141 26 -61 45 -113 42 -116 -2 -3
-35 18 -72 46 -37 28 -70 51 -74 51 -11 0 -63 -128 -56 -138 9 -14 356 -276
360 -271 17 18 66 133 59 139 -4 3 -36 28 -70 55 -35 26 -63 51 -63 55 0 4 41
1 92 -7 50 -7 92 -12 94 -10 2 2 17 32 33 68 34 74 34 75 -64 78 -33 1 -69 4
-80 6 -11 2 -43 4 -71 4 l-52 1 -42 105 c-23 58 -46 105 -50 105 -4 0 -13 -14
-20 -30z"/>
<path d="M3660 3295 c-14 -26 -18 -21 138 -200 28 -33 52 -63 52 -67 0 -3 -17
2 -37 12 -87 42 -246 110 -257 110 -13 -1 -96 -112 -96 -130 0 -11 63 -89 138
-170 13 -14 53 -60 90 -102 62 -73 67 -76 84 -61 10 9 18 21 18 28 0 6 -45 63
-100 126 -55 63 -96 115 -92 117 5 1 71 -25 147 -59 l140 -61 22 29 c13 15 36
46 52 68 l29 40 -150 173 c-82 94 -153 172 -157 172 -4 0 -14 -11 -21 -25z"/>
<path d="M1153 2938 c-62 -64 -88 -127 -88 -218 0 -58 5 -84 22 -116 64 -120
240 -189 319 -124 58 47 99 131 110 224 l6 53 -56 43 c-31 24 -59 41 -61 38
-2 -2 -15 -29 -28 -58 l-24 -55 39 -39 c31 -32 38 -46 36 -70 -4 -41 -24 -43
-91 -11 -112 55 -207 148 -207 203 0 34 24 37 76 8 26 -14 48 -26 50 -26 5 0
40 70 48 96 5 18 -2 28 -43 58 -27 20 -53 36 -58 36 -5 0 -28 -19 -50 -42z"/>
<path d="M3351 2891 l-41 -60 132 -152 c73 -84 142 -163 154 -177 l20 -25 47
64 c40 53 45 65 34 78 -15 18 -147 170 -162 187 -5 6 -30 35 -55 64 -56 67
-69 80 -79 80 -5 0 -27 -27 -50 -59z"/>
<path d="M3246 2748 c-9 -12 -16 -26 -16 -31 0 -5 45 -61 100 -125 54 -64 98
-118 96 -119 -3 -3 -238 99 -268 117 -10 6 -20 10 -22 10 -3 0 -26 -30 -52
-66 -35 -49 -44 -69 -38 -83 5 -10 72 -90 149 -179 131 -150 141 -160 157
-145 10 9 18 23 18 31 0 7 -43 63 -96 123 -53 61 -94 112 -92 115 3 2 67 -23
144 -56 l139 -60 22 28 c13 15 36 45 52 67 l29 41 -120 139 c-66 77 -135 157
-153 178 l-33 38 -16 -23z"/>
<path d="M905 2440 c-19 -38 -35 -74 -35 -80 0 -9 222 -280 287 -350 28 -29
35 -32 43 -20 15 22 12 56 -5 70 -9 7 -25 26 -36 41 l-19 28 24 55 c27 60 35
64 89 41 20 -8 39 -15 42 -15 11 0 75 144 67 151 -4 3 -100 38 -215 77 l-207
71 -35 -69z m161 -146 c38 -14 70 -27 71 -28 5 -5 -30 -86 -37 -86 -4 0 -35
32 -69 70 -35 39 -56 70 -48 70 8 0 46 -12 83 -26z"/>
<path d="M2896 2281 c-59 -78 -109 -148 -112 -156 -6 -15 11 -45 26 -45 4 0
20 18 36 41 l28 41 41 -44 c22 -23 83 -91 134 -150 51 -60 96 -108 100 -108 3
0 25 27 49 60 l44 60 -131 149 c-72 83 -131 155 -131 162 0 6 14 29 31 51 l32
40 -20 20 -21 20 -106 -141z"/>
<path d="M715 2034 l-28 -66 24 -20 c62 -49 339 -258 343 -258 4 0 42 78 98
203 30 66 30 68 12 82 -10 8 -22 15 -25 15 -3 0 -18 -27 -34 -60 -17 -36 -34
-59 -41 -56 -7 3 -77 54 -157 115 -80 61 -150 111 -155 111 -5 0 -22 -30 -37
-66z"/>
<path d="M2716 2042 c-11 -15 -30 -41 -43 -58 l-24 -32 67 -76 66 -76 -23 -35
-24 -36 -70 76 -70 76 -38 -51 c-21 -28 -40 -57 -43 -65 -6 -14 280 -350 297
-350 8 0 89 104 89 114 0 3 -29 39 -64 80 -67 78 -68 79 -31 126 16 20 17 19
48 -15 18 -19 48 -54 68 -78 l37 -43 46 62 c38 52 44 65 33 78 -73 93 -286
331 -297 331 -3 0 -14 -13 -24 -28z"/>
<path d="M655 1831 c-11 -5 -28 -17 -37 -27 -24 -27 -120 -224 -116 -240 2 -7
84 -74 183 -148 l180 -135 52 109 c63 133 77 180 68 235 -11 75 -98 135 -153
106 -28 -15 -27 -16 -41 29 -18 62 -80 94 -136 71z m49 -147 c26 -27 36 -77
16 -89 -5 -3 -34 13 -64 36 -46 36 -53 46 -45 61 15 27 61 23 93 -8z m145 -98
c49 -26 76 -88 53 -124 -6 -9 -26 1 -75 38 -37 28 -67 55 -67 60 0 14 30 40
46 40 8 0 28 -7 43 -14z"/>
<path d="M2424 1631 c-77 -55 -127 -132 -139 -213 -27 -180 192 -365 326 -274
41 28 69 79 69 126 0 27 3 31 21 25 16 -5 27 0 45 21 13 16 23 34 23 39 0 6
-31 43 -68 84 l-68 73 -48 -63 c-27 -35 -52 -69 -56 -74 -4 -6 -1 -19 7 -30
14 -19 14 -19 30 3 22 32 31 28 56 -23 18 -37 20 -48 10 -71 -11 -22 -17 -25
-40 -19 -49 12 -189 159 -214 225 -13 33 -2 70 21 70 10 0 35 -13 56 -30 21
-16 41 -30 45 -30 3 0 21 21 40 46 l33 46 -49 49 c-26 27 -51 49 -55 49 -3 0
-24 -13 -45 -29z"/>
<path d="M2137 1270 c-21 -28 -40 -56 -43 -63 -2 -7 64 -90 147 -185 l150
-173 44 58 c44 57 53 78 37 85 -4 2 -70 75 -146 163 -76 88 -141 161 -145 163
-3 1 -24 -20 -44 -48z"/>
</g>
</svg>
