<svg id="logo-animated" xmlns="http://www.w3.org/2000/svg" xmlns:xlink="http://www.w3.org/1999/xlink"
    viewBox="0 0 500 500" shape-rendering="geometricPrecision" text-rendering="geometricPrecision" width="500"
    height="500">
    <style>
        <![CDATA[
        #logo-animated-g2_ts {
            animation: logo-animated-g2_ts__ts 2500ms ease-in 1 normal forwards
        }

        @keyframes logo-animated-g2_ts__ts {
            0% {
                transform: translate(2507.26599px, 2460.996965px) scale(12.212223, 12.212223)
            }

            35% {
                transform: translate(2507.26599px, 2460.996965px) scale(12.212223, 12.212223)
            }

            55% {
                transform: translate(2507.26599px, 2460.996965px) scale(1.019014, 1.019014)
            }

            100% {
                transform: translate(2507.26599px, 2460.996965px) scale(1.019014, 1.019014)
            }
        }

        #logo-animated-g2 {
            animation: logo-animated-g2_c_o 2500ms ease-in 1 normal forwards
        }

        @keyframes logo-animated-g2_c_o {
            0% {
                opacity: 0
            }

            20% {
                opacity: 0
            }

            40% {
                opacity: 0.7
            }

            60% {
                opacity: 0.9
            }

            100% {
                opacity: 1
            }
        }

        #logo-animated-g3_to {
            animation: logo-animated-g3_to__to 2500ms ease-in 1 normal forwards
        }

        @keyframes logo-animated-g3_to__to {
            0% {
                transform: translate(5834.204435px, 432.95984px)
            }

            50% {
                transform: translate(5834.204435px, 432.95984px)
            }

            75% {
                transform: translate(3181.117555px, 2254.5px)
            }

            100% {
                transform: translate(3181.117555px, 2254.5px)
            }
        }

        #logo-animated-g3 {
            animation: logo-animated-g3_c_o 2500ms ease-in 1 normal forwards
        }

        @keyframes logo-animated-g3_c_o {
            0% {
                opacity: 0
            }

            60% {
                opacity: 1
            }

            100% {
                opacity: 1
            }
        }

        #logo-animated-g4_to {
            animation: logo-animated-g4_to__to 2500ms ease-in 1 normal forwards
        }

        @keyframes logo-animated-g4_to__to {
            0% {
                transform: translate(-618.828005px, 3000.24414px)
            }

            50% {
                transform: translate(-618.828005px, 3000.24414px)
            }

            75% {
                transform: translate(1120.706575px, 2340.5px)
            }

            100% {
                transform: translate(1120.706575px, 2340.5px)
            }
        }

        #logo-animated-g4 {
            animation: logo-animated-g4_c_o 2500ms ease-in 1 normal forwards
        }

        @keyframes logo-animated-g4_c_o {
            0% {
                opacity: 0
            }

            60% {
                opacity: 1
            }

            100% {
                opacity: 1
            }
        }
        ]]>
    </style>
    <g id="logo-animated-g1" transform="matrix(.1 0 0-.1 0 500)">
        <g id="logo-animated-g2_ts" transform="translate(2507.26599,2460.996965) scale(12.212223,12.212223)">
            <g id="logo-animated-g2" transform="translate(-2507.26599,-2460.996965)" opacity="0">
                <path id="logo-animated-path1"
                    d="M2395,4675c-66-24-125-52-133-62-19-26-100-285-104-330l-3-38l75-27c127-45,297-83,314-69c18,15,90,178,128,289c43,128,41,138-44,216-41,38-81,66-93,66-11-1-74-21-140-45Z" />
                <path id="logo-animated-path2"
                    d="M2777,4553c-11-20-137-426-137-443c0-13,16-25,58-40c132-51,198-70,238-70c37,0,47,5,70,35c29,38,128,278,139,338c6,31,3,44-20,76-28,42-81,83-128,100-32,12-214,15-220,4Z" />
                <path id="logo-animated-path3"
                    d="M3218,4343c-30-33-158-336-158-373c0-14,90-57,158-76c102-28,121-13,217,173c28,56,48,109,52,141c5,47,3,53-24,80-29,30-112,60-188,69-31,4-44,1-57-14Z" />
                <path id="logo-animated-path4"
                    d="M1986,4157c-59-63-198-451-199-557c0-43,11-85,52-195c32-82,53-156,54-180c0-44-76-216-288-650-140-288-409-853-418-878-4-10-3-16,2-13c9,6,165,248,416,646c317,503,383,600,407,600c4,0,8-19,8-41c0-59-38-144-315-709-134-272-250-512-259-532-15-38-15-38,9-38c13,0,100,11,195,25c187,27,240,30,240,15c0-32-257-620-271-620-4,0-49,48-100,107-51,60-98,108-105,108-17,0-207-254-201-268c3-7,60-74,126-150c67-76,121-140,121-142s-43-94-95-206c-53-111-94-204-91-206c5-5,128,148,211,260l50,68l29-33c16-18,46-51,66-73c27-30,232-265,255-293c1-1,93,119,205,268l202,270-42,48c-24,26-45,49-46,50-1,2-44-52-96-120-51-69-97-126-101-127-7-2-168,177-246,272-12,15,46,96,516,724c538,720,573,767,573,777c0,11-44,6-288-35-134-22-246-38-249-35-9,9,24,54,138,186l107,125l184,54c183,53,343,111,386,139c26,17,182,248,429,632c220,344,273,433,273,459c0,78-167,231-252,231-26,0-80-74-138-189-53-105-53-109-22-125c15-7,50-17,78-21c48-6,54-5,88,26c20,17,39,29,43,26c7-7-40-89-62-107-13-11-30-11-103,3-48,9-131,24-185,33l-99,16-31-29c-18-16-71-65-118-109-47-43-110-92-140-108-29-17-130-53-224-81l-170-52-22,36c-43,68-93,176-95,206-4,36,3,37,117,5c59-17,118-24,225-27c145-5,146-5,176,20c37,31,114,178,114,217c0,26-6,31-77,58-139,54-645,221-747,247-134,34-161,33-200-8Z" />
            </g>
        </g>
        <g id="logo-animated-g3_to" transform="translate(5834.204435,432.95984)">
            <g id="logo-animated-g3" transform="translate(-3181.117555,-2254.5)" opacity="0">
                <path id="logo-animated-path5"
                    d="M3922,3630c-84-61-134-156-134-253c2-133,143-270,263-254c69,9,129,74,129,141c0,35,2,38,23,32c18-4,29,1,46,25c12,16,21,34,19,39-4,14-122,149-130,149-8,1-108-134-108-146c0-6,6-16,14-22c12-10,17-8,26,8c15,29,27,26,50-11c36-59,18-118-30-103-31,10-133,108-174,169-29,41-37,61-34,87c4,46,30,49,79,9c22-17,43-29,47-26c5,3,21,23,37,45l27,40-42,51c-23,27-48,50-54,50-7,0-32-13-54-30Z" />
                <path id="logo-animated-path6"
                    d="M3660,3295c-14-26-18-21,138-200c28-33,52-63,52-67c0-3-17,2-37,12-87,42-246,110-257,110-13-1-96-112-96-130c0-11,63-89,138-170c13-14,53-60,90-102c62-73,67-76,84-61c10,9,18,21,18,28c0,6-45,63-100,126s-96,115-92,117c5,1,71-25,147-59l140-61l22,29c13,15,36,46,52,68l29,40-150,173c-82,94-153,172-157,172s-14-11-21-25Z" />
                <path id="logo-animated-path7"
                    d="M3351,2891l-41-60l132-152c73-84,142-163,154-177l20-25l47,64c40,53,45,65,34,78-15,18-147,170-162,187-5,6-30,35-55,64-56,67-69,80-79,80-5,0-27-27-50-59Z" />
                <path id="logo-animated-path8"
                    d="M3246,2748c-9-12-16-26-16-31s45-61,100-125c54-64,98-118,96-119-3-3-238,99-268,117-10,6-20,10-22,10-3,0-26-30-52-66-35-49-44-69-38-83c5-10,72-90,149-179c131-150,141-160,157-145c10,9,18,23,18,31c0,7-43,63-96,123-53,61-94,112-92,115c3,2,67-23,144-56l139-60l22,28c13,15,36,45,52,67l29,41-120,139c-66,77-135,157-153,178l-33,38-16-23Z" />
                <path id="logo-animated-path9"
                    d="M2896,2281c-59-78-109-148-112-156-6-15,11-45,26-45c4,0,20,18,36,41l28,41l41-44c22-23,83-91,134-150c51-60,96-108,100-108c3,0,25,27,49,60l44,60-131,149c-72,83-131,155-131,162c0,6,14,29,31,51l32,40-20,20-21,20-106-141Z" />
                <path id="logo-animated-path10"
                    d="M2716,2042c-11-15-30-41-43-58l-24-32l67-76l66-76-23-35-24-36-70,76-70,76-38-51c-21-28-40-57-43-65-6-14,280-350,297-350c8,0,89,104,89,114c0,3-29,39-64,80-67,78-68,79-31,126c16,20,17,19,48-15c18-19,48-54,68-78l37-43l46,62c38,52,44,65,33,78-73,93-286,331-297,331-3,0-14-13-24-28Z" />
                <path id="logo-animated-path11"
                    d="M2424,1631c-77-55-127-132-139-213-27-180,192-365,326-274c41,28,69,79,69,126c0,27,3,31,21,25c16-5,27,0,45,21c13,16,23,34,23,39c0,6-31,43-68,84l-68,73-48-63c-27-35-52-69-56-74-4-6-1-19,7-30c14-19,14-19,30,3c22,32,31,28,56-23c18-37,20-48,10-71-11-22-17-25-40-19-49,12-189,159-214,225-13,33-2,70,21,70c10,0,35-13,56-30c21-16,41-30,45-30c3,0,21,21,40,46l33,46-49,49c-26,27-51,49-55,49-3,0-24-13-45-29Z" />
                <path id="logo-animated-path12"
                    d="M2137,1270c-21-28-40-56-43-63-2-7,64-90,147-185l150-173l44,58c44,57,53,78,37,85-4,2-70,75-146,163s-141,161-145,163c-3,1-24-20-44-48Z" />
            </g>
        </g>
        <g id="logo-animated-g4_to" transform="translate(-618.828005,3000.24414)">
            <g id="logo-animated-g4" transform="translate(-1120.706575,-2340.5)" opacity="0">
                <path id="logo-animated-path13"
                    d="M1340,3370c-12-28-9-40,34-141c26-61,45-113,42-116-2-3-35,18-72,46s-70,51-74,51c-11,0-63-128-56-138c9-14,356-276,360-271c17,18,66,133,59,139-4,3-36,28-70,55-35,26-63,51-63,55s41,1,92-7c50-7,92-12,94-10s17,32,33,68c34,74,34,75-64,78-33,1-69,4-80,6s-43,4-71,4l-52,1-42,105c-23,58-46,105-50,105s-13-14-20-30Z" />
                <path id="logo-animated-path14"
                    d="M1153,2938c-62-64-88-127-88-218c0-58,5-84,22-116c64-120,240-189,319-124c58,47,99,131,110,224l6,53-56,43c-31,24-59,41-61,38-2-2-15-29-28-58l-24-55l39-39c31-32,38-46,36-70-4-41-24-43-91-11-112,55-207,148-207,203c0,34,24,37,76,8c26-14,48-26,50-26c5,0,40,70,48,96c5,18-2,28-43,58-27,20-53,36-58,36s-28-19-50-42Z" />
                <path id="logo-animated-path15"
                    d="M905,2440c-19-38-35-74-35-80c0-9,222-280,287-350c28-29,35-32,43-20c15,22,12,56-5,70-9,7-25,26-36,41l-19,28l24,55c27,60,35,64,89,41c20-8,39-15,42-15c11,0,75,144,67,151-4,3-100,38-215,77l-207,71-35-69Zm161-146c38-14,70-27,71-28c5-5-30-86-37-86-4,0-35,32-69,70-35,39-56,70-48,70s46-12,83-26Z" />
                <path id="logo-animated-path16"
                    d="M715,2034l-28-66l24-20c62-49,339-258,343-258s42,78,98,203c30,66,30,68,12,82-10,8-22,15-25,15s-18-27-34-60c-17-36-34-59-41-56s-77,54-157,115-150,111-155,111-22-30-37-66Z" />
                <path id="logo-animated-path17"
                    d="M655,1831c-11-5-28-17-37-27-24-27-120-224-116-240c2-7,84-74,183-148l180-135l52,109c63,133,77,180,68,235-11,75-98,135-153,106-28-15-27-16-41,29-18,62-80,94-136,71Zm49-147c26-27,36-77,16-89-5-3-34,13-64,36-46,36-53,46-45,61c15,27,61,23,93-8Zm145-98c49-26,76-88,53-124-6-9-26,1-75,38-37,28-67,55-67,60c0,14,30,40,46,40c8,0,28-7,43-14Z" />
            </g>
        </g>
    </g>
</svg>